<svg role="img" viewBox="0 0 24 24" xmlns="http://www.w3.org/2000/svg"><path d="M15.23 17.99l-1.85-6.02c-.2-.66-.38-1.15-.55-1.44-.16-.3-.35-.44-.6-.44-.25 0-.5.12-.76.35-.25.24-.5.6-.73 1.08-.24.49-.45 1.05-.64 1.68l-1.12 3.69c-.08.28-.02.5.17.66.19.16.42.21.7.14.1-.03.19-.07.27-.12.45-.25.82-.57 1.1-.95.28-.38.48-.8.6-1.26.12-.46.18-.94.18-1.44 0-.35-.03-.7-.09-1.05-.06-.35-.15-.7-.27-1.05-.12-.35-.28-.68-.48-1-.2-.32-.45-.6-.75-.84-.3-.24-.66-.42-1.08-.54-.42-.12-.9-.18-1.44-.18-.54 0-1.02.06-1.44.18-.42.12-.78.3-1.08.54-.3.24-.55.52-.75.84-.2.32-.36.65-.48 1-.12.35-.21.7-.27 1.05-.06.35-.09.7-.09 1.05 0 .5.06.98.18 1.44.12.46.32.88.6 1.26.28.38.65.7 1.1.95.08.05.17.09.27.12.28.07.51.02.7-.14.19-.16.25-.38.17-.66l-1.12-3.69c-.19-.63-.4-1.19-.64-1.68-.23-.48-.48-.84-.73-1.08-.25-.23-.51-.35-.76-.35-.25 0-.44.14-.6.44-.17.29-.35.78-.55 1.44l-1.85 6.02c-.08.28-.02.5.17.66.19.16.42.21.7.14.1-.03.19-.07.27-.12.45-.25.82-.57 1.1-.95.28-.38.48-.8.6-1.26.12-.46.18-.94.18-1.44 0-.35-.03-.7-.09-1.05-.06-.35-.15-.7-.27-1.05-.12-.35-.28-.68-.48-1-.2-.32-.45-.6-.75-.84-.3-.24-.66-.42-1.08-.54-.42-.12-.9-.18-1.44-.18-.54 0-1.02.06-1.44.18-.42.12-.78.3-1.08.54-.3.24-.55.52-.75.84-.2.32-.36.65-.48 1-.12.35-.21.7-.27 1.05-.06.35-.09.7-.09 1.05 0 .5.06.98.18 1.44.12.46.32.88.6 1.26.28.38.65.7 1.1.95.08.05.17.09.27.12.28.07.51.02.7-.14.19-.16.25-.38.17-.66z"/></svg>
