<svg role="img" viewBox="0 0 24 24" xmlns="http://www.w3.org/2000/svg"><path d="M18.164 7.93V5.084a2.198 2.198 0 0 0-2.205-2.135 2.2 2.2 0 0 0-2.209 2.135v2.846a2.272 2.272 0 0 1-2.216 2.229 2.29 2.29 0 0 1-2.216-2.229V5.084a2.2 2.2 0 0 0-2.209-2.135 2.198 2.198 0 0 0-2.205 2.135v2.846a2.272 2.272 0 0 1-2.216 2.229 2.29 2.29 0 0 1-2.216-2.229V5.084a2.198 2.198 0 0 0-2.205-2.135 2.2 2.2 0 0 0-2.209 2.135v3.5a4.384 4.384 0 0 0 3.655 4.307l.039.003v6.863a2.198 2.198 0 0 0 2.205 2.136 2.2 2.2 0 0 0 2.209-2.136v-6.4a.782.782 0 0 1 .039-.003 4.384 4.384 0 0 0 3.655-4.307v-3.5a2.272 2.272 0 0 1 2.216-2.229 2.29 2.29 0 0 1 2.216 2.229v.846zm-2.205 2.729a2.29 2.29 0 0 1-2.216-2.229 2.272 2.272 0 0 1 2.216-2.229 2.29 2.29 0 0 1 2.216 2.229 2.272 2.272 0 0 1-2.216 2.229zM12 0C5.382 0 0 5.382 0 12s5.382 12 12 12 12-5.382 12-12S18.618 0 12 0z"/></svg>
