<svg role="img" viewBox="0 0 24 24" xmlns="http://www.w3.org/2000/svg"><path d="M4.459 4.208c.746.606 1.026.56 2.428.466l13.215-.793c.28 0 .047-.28-.046-.326L17.86 1.968c-.42-.326-.98-.56-1.68-.56H4.46c-.98 0-1.68.42-1.68 1.4v2.4zm.793 3.08v13.904c0 .747.373 1.12 1.12 1.12h14.053c.747 0 1.12-.373 1.12-1.12V7.288c0-.747-.373-1.12-1.12-1.12H6.36c-.747 0-1.12.373-1.12 1.12zm14.4 1.12v9.36h-2.8v-9.36h2.8zm-5.6 0v9.36h-2.8v-9.36h2.8zm-5.6 0v9.36H5.26v-9.36h2.8zM4.459 20.25v-1.4h2.8v1.4h-2.8z"/></svg>
